<?xml version="1.0" standalone="no"?>
<!DOCTYPE svg PUBLIC "-//W3C//DTD SVG 20010904//EN"
 "http://www.w3.org/TR/2001/REC-SVG-20010904/DTD/svg10.dtd">
<svg version="1.0" xmlns="http://www.w3.org/2000/svg"
 width="512.000000pt" height="512.000000pt" viewBox="0 0 512.000000 512.000000"
 preserveAspectRatio="xMidYMid meet">

<g transform="translate(0.000000,512.000000) scale(0.100000,-0.100000)"
fill="#000000" stroke="none">
<path d="M3753 5041 c-106 -93 -281 -223 -402 -298 -147 -92 -271 -152 -501
-241 -767 -299 -1304 -652 -1661 -1093 -455 -562 -581 -1267 -355 -1979 70
-218 197 -489 225 -478 5 2 35 41 67 88 123 182 271 338 434 460 442 331 878
765 1201 1195 233 309 472 725 589 1022 24 62 46 111 47 109 7 -7 -81 -253
-144 -406 -345 -832 -881 -1537 -1548 -2036 -188 -140 -289 -262 -400 -484
-72 -145 -135 -305 -179 -457 -37 -128 -82 -323 -92 -397 l-7 -46 39 16 c22 9
93 36 159 59 l120 43 21 98 c34 163 91 328 161 466 l66 130 46 -6 c111 -13
482 -18 597 -7 591 54 1061 273 1456 679 306 315 544 744 641 1157 74 315 80
773 16 1160 -39 232 -113 498 -206 735 -76 193 -278 580 -303 580 -5 0 -44
-31 -87 -69z"/>
</g>
</svg>
